<svg width="34" height="19" viewBox="0 0 34 19" fill="none" xmlns="http://www.w3.org/2000/svg">
<path d="M32 11C32.8284 11 33.5 10.3284 33.5 9.5C33.5 8.67157 32.8284 8 32 8V11ZM2 9.5L0.971953 8.4077C0.670773 8.69116 0.5 9.08641 0.5 9.5C0.5 9.91359 0.670773 10.3088 0.971953 10.5923L2 9.5ZM9.47195 18.5923C10.0752 19.1601 11.0245 19.1313 11.5923 18.528C12.1601 17.9248 12.1313 16.9755 11.528 16.4077L9.47195 18.5923ZM11.528 2.5923C12.1313 2.02453 12.1601 1.07521 11.5923 0.471953C11.0245 -0.131308 10.0752 -0.160075 9.47195 0.4077L11.528 2.5923ZM32 8H2V11H32V8ZM0.971953 10.5923L9.47195 18.5923L11.528 16.4077L3.02805 8.4077L0.971953 10.5923ZM3.02805 10.5923L11.528 2.5923L9.47195 0.4077L0.971953 8.4077L3.02805 10.5923Z" fill="white"/>
</svg>
