<svg width="70" height="71" viewBox="0 0 70 71" fill="none" xmlns="http://www.w3.org/2000/svg">
<g clip-path="url(#clip0)">
<path d="M41.0714 35.5C40.1207 35.5 39.2264 34.9903 38.7426 34.1746L35.1257 28.1367L31.5145 34.1746C31.0251 34.9959 30.1307 35.5057 29.1801 35.5057C28.927 35.5057 28.6739 35.4717 28.432 35.3981L20.7257 33.1778V43.2598C20.7257 44.0924 21.2882 44.8174 22.087 45.0156L34.2482 48.0799C34.822 48.2215 35.4239 48.2215 35.992 48.0799L48.1645 45.0156C48.9632 44.8117 49.5257 44.0867 49.5257 43.2598V33.1778L41.8195 35.3924C41.5776 35.466 41.3245 35.5 41.0714 35.5ZM53.0301 29.1449L50.1332 23.3223C49.9589 22.9711 49.582 22.7672 49.1939 22.8182L35.1257 24.625L40.2839 33.2401C40.4976 33.5969 40.9251 33.7668 41.3245 33.6535L52.4564 30.4533C53.0132 30.2891 53.2832 29.666 53.0301 29.1449V29.1449ZM20.1182 23.3223L17.2214 29.1449C16.9626 29.666 17.2382 30.2891 17.7895 30.4477L28.9214 33.6479C29.3207 33.7612 29.7482 33.5912 29.962 33.2344L35.1257 24.625L21.052 22.8182C20.6639 22.7729 20.2926 22.9711 20.1182 23.3223V23.3223Z" fill="#AAB6BE"/>
</g>
<rect x="1.5" y="1.87427" width="67.2515" height="67.2515" stroke="#AAB6BE" stroke-width="2"/>
<defs>
<clipPath id="clip0">
<rect width="36" height="29" fill="white" transform="translate(17.1257 21)"/>
</clipPath>
</defs>
</svg>
