<svg width="32" height="31" viewBox="0 0 32 31" fill="none" xmlns="http://www.w3.org/2000/svg">
<path d="M29.3125 9.68749H15.75L9.4375 0.999986C9.1875 0.58332 8.83333 0.354153 8.375 0.312486C7.91667 0.27082 7.47917 0.416653 7.0625 0.749986C6.4375 1.41665 6.39583 2.08332 6.9375 2.74999L11.875 9.68749H2.6875C1.9375 9.68749 1.30208 9.9479 0.78125 10.4687C0.260417 10.9896 0 11.6042 0 12.3125V13.6875C0 14.8542 0.541667 15.6458 1.625 16.0625L5.3125 27.375C5.47917 27.9583 5.8125 28.4896 6.3125 28.9687C6.8125 29.4479 7.375 29.6875 8 29.6875H24C24.625 29.6875 25.1875 29.4479 25.6875 28.9687C26.1875 28.4896 26.5208 27.9583 26.6875 27.375L30.375 16.1875C31.4583 15.7708 32 14.9792 32 13.8125V12.4375C32 11.6458 31.7396 10.9896 31.2188 10.4687C30.6979 9.9479 30.0625 9.68749 29.3125 9.68749ZM2.6875 12.3125H13.875L14.8125 13.5625C14.8958 13.5625 14.9375 13.6042 14.9375 13.6875H2.6875V12.3125ZM24.125 26.625V26.75C24.125 26.7917 24.1042 26.8333 24.0625 26.875C24.0208 26.9167 24 26.9583 24 27H8.125C8.04167 27 8 26.9167 8 26.75L4.5625 16.3125H27.4375L24.125 26.625ZM17.1875 13.6875C17.4792 13.1875 17.625 12.7292 17.625 12.3125H29.3125V13.6875H17.1875ZM9.3125 24.625C9.35417 24.9167 9.52083 25.1667 9.8125 25.375C10.1042 25.5833 10.3958 25.6875 10.6875 25.6875H10.9375C11.2708 25.6042 11.5417 25.3958 11.75 25.0625C11.9583 24.7292 12 24.3958 11.875 24.0625L10.5625 18.75C10.4792 18.4167 10.2708 18.1458 9.9375 17.9375C9.60417 17.7292 9.27083 17.6875 8.9375 17.8125C8.60417 17.8958 8.33333 18.1042 8.125 18.4375C7.91667 18.7708 7.875 19.0833 8 19.375L9.3125 24.625ZM21.0625 25.6875H21.3125C21.6042 25.6875 21.8958 25.5833 22.1875 25.375C22.4792 25.1667 22.6458 24.9167 22.6875 24.625L24 19.25C24.0833 18.9167 24.0312 18.5833 23.8438 18.25C23.6562 17.9167 23.3958 17.7292 23.0625 17.6875C22.1875 17.5208 21.6458 17.8333 21.4375 18.625L20.125 23.9375C19.875 24.7708 20.1875 25.3542 21.0625 25.6875ZM16 25.6875C16.875 25.6875 17.3125 25.2292 17.3125 24.3125V19C17.3125 18.125 16.875 17.6875 16 17.6875C15.125 17.6875 14.6875 18.125 14.6875 19V24.3125C14.6875 25.2292 15.125 25.6875 16 25.6875Z" fill="#0D2E44"/>
</svg>
